<?xml version="1.0"?>
<svg width="200" height="144" xmlns="http://www.w3.org/2000/svg" xmlns:svg="http://www.w3.org/2000/svg">
 <g class="layer">
  <title>Layer 1</title>
  <rect fill="#f7f8f9" height="144" id="svg_1" rx="4" transform="matrix(1 0 0 1 0 0)" width="200" x="0" y="-0.25"/>
  <rect fill="#f1f2f4" height="40" id="svg_21" rx="3" width="160" x="20.38" y="48.13"/>
  <path clip-rule="evenodd" d="m31.27,59.39c0.33,-0.63 0.87,-0.63 1.2,0l4.54,8.58c0.33,0.63 0.03,1.14 -0.67,1.14l-8.92,0c-0.7,0 -1,-0.51 -0.67,-1.14l4.54,-8.58zm0.15,6.21a0.64,0.64 0 0 0 1.09,-0.45l0,-3.19a0.64,0.64 0 0 0 -1.27,0l0,3.19a0.64,0.64 0 0 0 0.18,0.45zm0,1.92a0.64,0.64 0 1 0 0.9,-0.9a0.64,0.64 0 0 0 -0.9,0.9z" fill="#44546F" fill-rule="evenodd" id="svg_22"/>
  <rect fill="#B3B9C4" height="4" id="svg_23" rx="2" ry="2" width="50" x="45.63" y="58.92"/>
  <rect fill="#B3B9C4" height="4" id="svg_24" rx="2" ry="2" width="90" x="45.63" y="72.16"/>
  <path d="m172.6,59.03l-2.35,2.35l-2.34,-2.35a0.38,0.38 0 0 0 -0.53,0l-0.52,0.52a0.37,0.37 0 0 0 0,0.53l2.34,2.34l-2.34,2.35a0.38,0.38 0 0 0 0,0.52l0.52,0.52c0.15,0.15 0.38,0.15 0.53,0l2.34,-2.34l2.35,2.34a0.38,0.38 0 0 0 0.52,0l0.52,-0.52a0.37,0.37 0 0 0 0,-0.52l-2.34,-2.35l2.34,-2.34a0.38,0.38 0 0 0 0,-0.53l-0.52,-0.52a0.38,0.38 0 0 0 -0.27,-0.11a0.37,0.37 0 0 0 -0.26,0.11z" fill="#8993a5" fill-rule="evenodd" id="svg_2"/>
 </g>
 <defs>undefinedundefined</defs>
</svg>