<svg width="200" height="144" fill="none" xmlns="http://www.w3.org/2000/svg"><g clip-path="url(#a)"><rect width="200" height="144" rx="4" fill="#F7F8F9"/><g filter="url(#b)"><path d="M24 66a4 4 0 0 1 4-4h144a4 4 0 0 1 4 4v80H24V66Z" fill="#fff"/></g><rect x="24" y="24" width="152" height="32" rx="4" fill="#fff"/><path fill-rule="evenodd" clip-rule="evenodd" d="m157.293 42.697-4.593-4.593a.99.99 0 1 1 1.4-1.4l3.9 3.9 3.9-3.9a.99.99 0 1 1 1.4 1.4l-4.593 4.593a1 1 0 0 1-1.414 0Z" fill="#fff"/><mask id="c" style="mask-type:alpha" maskUnits="userSpaceOnUse" x="152" y="36" width="12" height="7"><path fill-rule="evenodd" clip-rule="evenodd" d="m157.293 42.697-4.593-4.593a.99.99 0 1 1 1.4-1.4l3.9 3.9 3.9-3.9a.99.99 0 1 1 1.4 1.4l-4.593 4.593a1 1 0 0 1-1.414 0Z" fill="#fff"/></mask><g mask="url(#c)"><path fill-rule="evenodd" clip-rule="evenodd" d="M146 52h24V28h-24v24Z" fill="#44546F"/></g><path fill="#F1F2F4" d="M24 71h152v24H24z"/><rect x="40" y="79" width="120" height="8" rx="4" fill="#DCDFE4"/><rect x="40" y="103" width="120" height="8" rx="4" fill="#DCDFE4"/><rect x="40" y="127" width="120" height="8" rx="4" fill="#DCDFE4"/></g><defs><clipPath id="a"><path fill="#fff" d="M0 0h200v144H0z"/></clipPath><filter id="b" x="12" y="58" width="176" height="108" filterUnits="userSpaceOnUse" color-interpolation-filters="sRGB"><feFlood flood-opacity="0" result="BackgroundImageFix"/><feColorMatrix in="SourceAlpha" values="0 0 0 0 0 0 0 0 0 0 0 0 0 0 0 0 0 0 127 0" result="hardAlpha"/><feOffset dy="8"/><feGaussianBlur stdDeviation="6"/><feColorMatrix values="0 0 0 0 0.0352941 0 0 0 0 0.117647 0 0 0 0 0.258824 0 0 0 0.15 0"/><feBlend in2="BackgroundImageFix" result="effect1_dropShadow_405_65"/><feColorMatrix in="SourceAlpha" values="0 0 0 0 0 0 0 0 0 0 0 0 0 0 0 0 0 0 127 0" result="hardAlpha"/><feOffset/><feGaussianBlur stdDeviation=".5"/><feColorMatrix values="0 0 0 0 0.0352941 0 0 0 0 0.117647 0 0 0 0 0.258824 0 0 0 0.31 0"/><feBlend in2="effect1_dropShadow_405_65" result="effect2_dropShadow_405_65"/><feBlend in="SourceGraphic" in2="effect2_dropShadow_405_65" result="shape"/></filter></defs></svg>