<svg width="200" height="144" fill="none" xmlns="http://www.w3.org/2000/svg"><rect width="200" height="144" rx="4" fill="#F7F8F9"/><path fill-rule="evenodd" clip-rule="evenodd" d="m43.005 70.995 4.593-4.593a.99.99 0 1 1 1.4 1.4l-3.9 3.9 3.9 3.9a.99.99 0 0 1-1.4 1.4l-4.593-4.592a1 1 0 0 1 0-1.414Z" fill="#B3B9C4"/><path fill-rule="evenodd" clip-rule="evenodd" d="M65 62a3 3 0 0 0-3 3v14a3 3 0 0 0 3 3h14a3 3 0 0 0 3-3V65a3 3 0 0 0-3-3H65Z" fill="#44546F"/><path d="M73.132 76v-7.884h-1.044l-2.028.636v1.344l1.632-.6V76h1.44Z" fill="#fff"/><path fill-rule="evenodd" clip-rule="evenodd" d="M93 62a3 3 0 0 0-3 3v14a3 3 0 0 0 3 3h14a3 3 0 0 0 3-3V65a3 3 0 0 0-3-3H93ZM121 62a3 3 0 0 0-3 3v14a3 3 0 0 0 3 3h14a3 3 0 0 0 3-3V65a3 3 0 0 0-3-3h-14Z" fill="#DCDFE4"/><path fill-rule="evenodd" clip-rule="evenodd" d="M156.995 70.995a1.002 1.002 0 0 1 0 1.414l-4.593 4.593a.99.99 0 0 1-1.4-1.4l3.9-3.9-3.9-3.9a.99.99 0 0 1 1.4-1.4l4.593 4.593Z" fill="#B3B9C4"/></svg>