<svg width="200" height="144" fill="none" xmlns="http://www.w3.org/2000/svg"><rect width="200" height="144" rx="4" fill="#F7F8F9"/><path d="M24.048 0h151.904v144H24.048V0Z" fill="#fff"/><rect x="64.983" y="94.206" width="68.725" height="4" rx="2" fill="#B3B9C4"/><rect x="46.996" y="102.206" width="106.007" height="4" rx="2" fill="#DCDFE4"/><g clip-path="url(#a)"><path d="m113.328 25.228 6.199 50.484-46.946 5.765-7.598-61.884 35.759-4.39 12.586 10.025Z" fill="#F1F2F4"/><path opacity=".2" d="m102.973 32.658 10.352-7.46-12.486-9.918 2.134 17.378Z" fill="url(#b)"/><path d="M113.328 25.228 102.141 26.6l-1.399-11.398 12.586 10.025Z" fill="#F7F8F9"/></g><g filter="url(#c)"><path d="M122.002 30.613v50.863H74.704V19.128h36.027l11.271 11.485Z" fill="#F7F8F9"/></g><path opacity=".2" d="m110.723 36.637 11.184-6.143-11.184-11.366v17.509Z" fill="url(#d)"/><path fill-rule="evenodd" clip-rule="evenodd" d="M82.677 29.873c0-1.854 1.539-3.356 3.438-3.356h24.141c1.899 0 3.438 1.502 3.438 3.356v23.566c0 .89-.362 1.744-1.007 2.373a3.48 3.48 0 0 1-2.431.983H86.115a3.48 3.48 0 0 1-2.431-.983 3.316 3.316 0 0 1-1.007-2.373V29.873ZM95.6 49.226l-2.585-2.524-5.17 5.047h20.678v-4.542l-5.169-5.551-7.754 7.57Zm-4.308-10.934a3.49 3.49 0 0 0 2.437-.986 3.324 3.324 0 0 0 1.01-2.379c0-.892-.364-1.748-1.01-2.379a3.49 3.49 0 0 0-2.437-.985 3.49 3.49 0 0 0-2.437.985 3.324 3.324 0 0 0-1.01 2.38c0 .892.364 1.747 1.01 2.378a3.49 3.49 0 0 0 2.437.986Z" fill="#DCDFE4"/><path d="M121.995 30.613h-11.272V19.128l11.272 11.485Z" fill="#F7F8F9"/><rect x="75.24" y="114.934" width="49.52" height="15.237" rx="3" fill="#B3B9C4"/><rect x="82.859" y="120.648" width="34.283" height="3.809" rx="1.905" fill="#F1F2F4"/><defs><linearGradient id="b" x1="99.605" y1="29.986" x2="110.071" y2="16.849" gradientUnits="userSpaceOnUse"><stop stop-color="#091E42" stop-opacity="0"/><stop offset=".25" stop-color="#091E42" stop-opacity=".17"/><stop offset=".69" stop-color="#091E42" stop-opacity=".62"/><stop offset="1" stop-color="#091E42"/></linearGradient><linearGradient id="d" x1="107.706" y1="33.574" x2="119.696" y2="21.81" gradientUnits="userSpaceOnUse"><stop stop-color="#091E42" stop-opacity="0"/><stop offset=".25" stop-color="#091E42" stop-opacity=".17"/><stop offset=".69" stop-color="#091E42" stop-opacity=".62"/><stop offset="1" stop-color="#091E42"/></linearGradient><clipPath id="a"><path fill="#fff" transform="rotate(-7 192.665 -521.433)" d="M0 0h47.298v62.348H0z"/></clipPath><filter id="c" x="70.704" y="18.128" width="55.298" height="70.348" filterUnits="userSpaceOnUse" color-interpolation-filters="sRGB"><feFlood flood-opacity="0" result="BackgroundImageFix"/><feColorMatrix in="SourceAlpha" values="0 0 0 0 0 0 0 0 0 0 0 0 0 0 0 0 0 0 127 0" result="hardAlpha"/><feOffset dy="3"/><feGaussianBlur stdDeviation="2"/><feColorMatrix values="0 0 0 0 0.0352941 0 0 0 0 0.117647 0 0 0 0 0.258824 0 0 0 0.15 0"/><feBlend in2="BackgroundImageFix" result="effect1_dropShadow_1552_3968"/><feBlend in="SourceGraphic" in2="effect1_dropShadow_1552_3968" result="shape"/></filter></defs></svg>