<svg width="200" height="144" fill="none" xmlns="http://www.w3.org/2000/svg"><g clip-path="url(#a)"><rect width="200" height="144" rx="4" fill="#F7F8F9"/><path fill-rule="evenodd" clip-rule="evenodd" d="M32 107h8a2 2 0 0 1 2 2v8a2 2 0 0 1-2 2h-8a2 2 0 0 1-2-2v-8a2 2 0 0 1 2-2Zm1.382 5.069a1 1 0 0 1 .325.224L35 113.586l3.293-3.293a1 1 0 1 1 1.414 1.414l-4 4a1.002 1.002 0 0 1-1.414 0l-2-2a1 1 0 0 1 1.09-1.638Z" fill="#44546F"/><rect x="52" y="109" width="124" height="8" rx="4" fill="#DCDFE4"/><path fill-rule="evenodd" clip-rule="evenodd" d="M32 131h8a2 2 0 0 1 2 2v8a2 2 0 0 1-2 2h-8a2 2 0 0 1-2-2v-8a2 2 0 0 1 2-2Zm1.382 5.069a1 1 0 0 1 .325.224L35 137.586l3.293-3.293a1 1 0 1 1 1.414 1.414l-4 4a1.002 1.002 0 0 1-1.414 0l-2-2a1 1 0 0 1 1.09-1.638Z" fill="#44546F"/><rect x="30" y="131" width="12" height="12" rx="2" fill="#44546F"/><rect x="52" y="133" width="124" height="8" rx="4" fill="#DCDFE4"/><rect x="24" y="43" width="60" height="8" rx="4" fill="#DCDFE4"/><rect x="25" y="56" width="150" height="30" rx="3" fill="#fff" stroke="#DCDFE4" stroke-width="2"/></g><defs><clipPath id="a"><path fill="#fff" d="M0 0h200v144H0z"/></clipPath></defs></svg>