<svg width="200" height="144" fill="none" xmlns="http://www.w3.org/2000/svg"><g clip-path="url(#a)"><rect width="200" height="144" rx="4" fill="#F7F8F9"/><rect x="24" y="24" width="218" height="157" rx="4" fill="#fff"/><rect x="32" y="40" width="45" height="8" rx="4" fill="#B3B9C4"/><rect x="148" y="40" width="45" height="8" rx="4" fill="#B3B9C4"/><path fill="#DCDFE4" d="M32 58h202v2H32z"/><path fill-rule="evenodd" clip-rule="evenodd" d="M54 74c0 5.523-4.477 10-10 10s-10-4.477-10-10 4.477-10 10-10 10 4.477 10 10Zm-7-3a3 3 0 1 1-6 0 3 3 0 0 1 6 0Zm-3 11a7.967 7.967 0 0 1-5-1.755V77c0-1.105.887-2 2-2h6c1.105 0 2 .885 2 2v3.245A7.967 7.967 0 0 1 44 82Z" fill="#B3B9C4"/><rect x="60" y="70" width="44.956" height="8" rx="4" fill="#DCDFE4"/><rect x="148" y="70" width="44.956" height="8" rx="4" fill="#DCDFE4"/><path fill="#F1F2F4" d="M32 88h202v1H32z"/><path fill-rule="evenodd" clip-rule="evenodd" d="M54 103c0 5.523-4.477 10-10 10s-10-4.477-10-10 4.477-10 10-10 10 4.477 10 10Zm-7-3a3 3 0 1 1-6 0 3 3 0 0 1 6 0Zm-3 11a7.967 7.967 0 0 1-5-1.755V106c0-1.105.887-2 2-2h6c1.105 0 2 .885 2 2v3.245A7.967 7.967 0 0 1 44 111Z" fill="#B3B9C4"/><rect x="60" y="99" width="52.698" height="8" rx="4" fill="#DCDFE4"/><rect x="148" y="99" width="73" height="8" rx="4" fill="#DCDFE4"/><path fill="#F1F2F4" d="M32 117h202v1H32z"/><path fill-rule="evenodd" clip-rule="evenodd" d="M54 132c0 5.523-4.477 10-10 10s-10-4.477-10-10 4.477-10 10-10 10 4.477 10 10Zm-7-3a3 3 0 1 1-6 0 3 3 0 0 1 6 0Zm-3 11a7.967 7.967 0 0 1-5-1.755V135c0-1.105.887-2 2-2h6c1.105 0 2 .885 2 2v3.245A7.967 7.967 0 0 1 44 140Z" fill="#B3B9C4"/><rect x="60" y="128" width="72" height="8" rx="4" fill="#DCDFE4"/><rect x="148" y="128" width="59" height="8" rx="4" fill="#DCDFE4"/></g><defs><clipPath id="a"><path fill="#fff" d="M0 0h200v144H0z"/></clipPath></defs></svg>