<?xml version="1.0"?>
<svg width="200" height="144" xmlns="http://www.w3.org/2000/svg" xmlns:svg="http://www.w3.org/2000/svg">
 <g class="layer">
  <title>Layer 1</title>
  <rect fill="#F7F8F9" height="144" id="svg_1" rx="4" width="200" x="-1" y="-2"/>
  <path d="m43.5,80.83l-3.9,2.06a1,1 0 0 1 -1.45,-1.06l0.74,-4.35l-3.16,-3.08a1,1 0 0 1 0.56,-1.7l4.36,-0.64l1.95,-3.95a1,1 0 0 1 1.8,0l1.95,3.95l4.37,0.64a1,1 0 0 1 0.55,1.7l-3.16,3.08l0.75,4.35a1,1 0 0 1 -1.45,1.06l-3.91,-2.06z" fill="#b3b9c4" fill-rule="evenodd" id="svg_14"/>
  <path d="m71.5,80.83l-3.9,2.06a1,1 0 0 1 -1.45,-1.06l0.74,-4.35l-3.16,-3.08a1,1 0 0 1 0.56,-1.7l4.36,-0.64l1.95,-3.95a1,1 0 0 1 1.8,0l1.95,3.95l4.37,0.64a1,1 0 0 1 0.55,1.7l-3.16,3.08l0.75,4.35a1,1 0 0 1 -1.45,1.06l-3.91,-2.06z" fill="#b3b9c4" fill-rule="evenodd" id="svg_15"/>
  <path d="m97.5,80.83l-3.9,2.06a1,1 0 0 1 -1.45,-1.06l0.74,-4.35l-3.16,-3.08a1,1 0 0 1 0.56,-1.7l4.36,-0.64l1.95,-3.95a1,1 0 0 1 1.8,0l1.95,3.95l4.37,0.64a1,1 0 0 1 0.55,1.7l-3.16,3.08l0.75,4.35a1,1 0 0 1 -1.45,1.06l-3.91,-2.06z" fill="#b3b9c4" fill-rule="evenodd" id="svg_16"/>
  <path d="m123.5,80.83l-3.9,2.06a1,1 0 0 1 -1.45,-1.06l0.74,-4.35l-3.16,-3.08a1,1 0 0 1 0.56,-1.7l4.36,-0.64l1.95,-3.95a1,1 0 0 1 1.8,0l1.95,3.95l4.37,0.64a1,1 0 0 1 0.55,1.7l-3.16,3.08l0.75,4.35a1,1 0 0 1 -1.45,1.06l-3.91,-2.06z" fill="#b3b9c4" fill-rule="evenodd" id="svg_17"/>
  <path d="m148.5,80.83l-3.9,2.06a1,1 0 0 1 -1.45,-1.06l0.74,-4.35l-3.16,-3.08a1,1 0 0 1 0.56,-1.7l4.36,-0.64l1.95,-3.95a1,1 0 0 1 1.8,0l1.95,3.95l4.37,0.64a1,1 0 0 1 0.55,1.7l-3.16,3.08l0.75,4.35a1,1 0 0 1 -1.45,1.06l-3.91,-2.06z" fill="#b3b9c4" fill-rule="evenodd" id="svg_18"/>
 </g>
</svg>