<svg width="200" height="144" fill="none" xmlns="http://www.w3.org/2000/svg"><rect width="200" height="144" rx="4" fill="#F7F8F9"/><rect width="200" height="144" rx="4" fill="#F7F8F9"/><rect x="67" y="64" width="66" height="16" rx="3" fill="#fff"/><rect x="71" y="68" width="48" height="8" rx="4" fill="#DCDFE4"/><path fill-rule="evenodd" clip-rule="evenodd" d="M128.77 73.662a.782.782 0 0 1-.554 1.338.783.783 0 0 1-.554-.23L126 73.108l-1.663 1.662a.781.781 0 0 1-1.108 0 .785.785 0 0 1 0-1.108L124.891 72l-1.662-1.662a.783.783 0 1 1 1.108-1.108L126 70.892l1.662-1.662a.783.783 0 1 1 1.108 1.108L127.108 72l1.662 1.662Z" fill="#8993A5"/></svg>