<svg width="200" height="144" fill="none" xmlns="http://www.w3.org/2000/svg"><rect width="200" height="144" rx="4" fill="#F7F8F9"/><path d="M84 61a8 8 0 0 1 8-8h16a8 8 0 0 1 0 16H92a8 8 0 0 1-8-8Z" fill="#8993A5"/><path d="m107 60.529-1.764-1.765a.333.333 0 0 0-.472.472L106.529 61l-1.765 1.764a.335.335 0 0 0 .237.565.334.334 0 0 0 .235-.093L107 61.47l1.764 1.765a.334.334 0 0 0 .472-.472L107.471 61l1.765-1.764a.322.322 0 0 0 .074-.108.336.336 0 0 0-.07-.367.343.343 0 0 0-.239-.098.328.328 0 0 0-.237.101L107 60.53Z" fill="#fff" stroke="#fff" stroke-width="1.5"/><circle cx="92.4" cy="61" r="6" fill="#fff"/><path d="M84 83a8 8 0 0 1 8-8h16a8 8 0 0 1 0 16H92a8 8 0 0 1-8-8Z" fill="#8993A5"/><path d="M90.567 82.761a.5.5 0 0 0-.734.678l1.805 1.96c.269.263.669.263.917.015l.182-.18c.658-.646 1.314-1.293 1.97-1.941l.02-.02a249.29 249.29 0 0 0 1.829-1.822.5.5 0 0 0-.712-.702c-.604.607-1.21 1.211-1.82 1.813l-.02.02c-.628.62-1.258 1.241-1.888 1.86l-1.549-1.68Z" fill="#fff" stroke="#fff"/><circle cx="107.8" cy="83" r="6" fill="#fff"/></svg>