<svg width="200" height="144" fill="none" xmlns="http://www.w3.org/2000/svg"><g clip-path="url(#a)"><rect width="200" height="144" rx="4" fill="#F7F8F9"/><g filter="url(#b)"><path fill="#F7F8F9" d="M24 44h176v100H24z"/><g filter="url(#c)"><path fill="#fff" d="M24 44h136v100H24z"/><rect x="36" y="56" width="16" height="16" rx="2" fill="#DCDFE4"/><rect x="60" y="58" width="64" height="4" rx="2" fill="#DCDFE4"/><rect x="60" y="66" width="48" height="4" rx="2" fill="#F1F2F4"/><rect x="38" y="86" width="12" height="12" rx="2" fill="#DCDFE4"/><rect x="60" y="90" width="32" height="4" rx="2" fill="#DCDFE4"/><rect x="32" y="102" width="120" height="20" rx="2" fill="#F1F2F4"/><rect x="38" y="106" width="12" height="12" rx="2" fill="#8993A5"/><rect x="60" y="110" width="48" height="4" rx="2" fill="#8993A5"/><rect x="38" y="126" width="12" height="12" rx="2" fill="#DCDFE4"/><rect x="60" y="130" width="40" height="4" rx="2" fill="#DCDFE4"/></g><path d="M24 28a4 4 0 0 1 4-4h172v20.336H24V28Z" fill="#F1F2F4"/><ellipse cx="36" cy="34.168" rx="4" ry="4.067" fill="#B3B9C4"/><ellipse cx="48" cy="34.168" rx="4" ry="4.067" fill="#B3B9C4"/><ellipse cx="60" cy="34.168" rx="4" ry="4.067" fill="#B3B9C4"/></g></g><defs><filter id="b" x="12" y="20" width="200" height="144" filterUnits="userSpaceOnUse" color-interpolation-filters="sRGB"><feFlood flood-opacity="0" result="BackgroundImageFix"/><feColorMatrix in="SourceAlpha" values="0 0 0 0 0 0 0 0 0 0 0 0 0 0 0 0 0 0 127 0" result="hardAlpha"/><feOffset dy="8"/><feGaussianBlur stdDeviation="6"/><feColorMatrix values="0 0 0 0 0.0352941 0 0 0 0 0.117647 0 0 0 0 0.258824 0 0 0 0.15 0"/><feBlend in2="BackgroundImageFix" result="effect1_dropShadow_2159_4300"/><feColorMatrix in="SourceAlpha" values="0 0 0 0 0 0 0 0 0 0 0 0 0 0 0 0 0 0 127 0" result="hardAlpha"/><feOffset/><feGaussianBlur stdDeviation=".5"/><feColorMatrix values="0 0 0 0 0.0352941 0 0 0 0 0.117647 0 0 0 0 0.258824 0 0 0 0.31 0"/><feBlend in2="effect1_dropShadow_2159_4300" result="effect2_dropShadow_2159_4300"/><feBlend in="SourceGraphic" in2="effect2_dropShadow_2159_4300" result="shape"/></filter><filter id="c" x="24" y="44" width="136" height="100" filterUnits="userSpaceOnUse" color-interpolation-filters="sRGB"><feFlood flood-opacity="0" result="BackgroundImageFix"/><feBlend in="SourceGraphic" in2="BackgroundImageFix" result="shape"/><feColorMatrix in="SourceAlpha" values="0 0 0 0 0 0 0 0 0 0 0 0 0 0 0 0 0 0 127 0" result="hardAlpha"/><feOffset dx="-1"/><feComposite in2="hardAlpha" operator="arithmetic" k2="-1" k3="1"/><feColorMatrix values="0 0 0 0 0.921569 0 0 0 0 0.92549 0 0 0 0 0.941176 0 0 0 1 0"/><feBlend in2="shape" result="effect1_innerShadow_2159_4300"/></filter><clipPath id="a"><path fill="#fff" d="M0 0h200v144H0z"/></clipPath></defs></svg>