<?xml version="1.0"?>
<svg width="200" height="144" xmlns="http://www.w3.org/2000/svg" xmlns:svg="http://www.w3.org/2000/svg">
 <g>
  <rect fill="#F7F8F9" height="144" rx="4" width="200"/>
  <rect fill="#fff" height="30" rx="3" stroke="#DCDFE4" stroke-width="2" width="153" x="25" y="63"/>
  <rect fill="#8993a5" height="30" width="35" x="24" y="63"/>
  <rect fill="#dcdfe4" height="8" rx="4" width="80" x="63" y="75"/>
  <path d="m42.06,79.93c-0.9,0 -1.45,-0.73 -1.45,-1.95c0,-1.22 0.54,-1.95 1.47,-1.95c0.92,0 1.42,0.77 1.42,1.97c0,1.2 -0.5,1.93 -1.44,1.93m-0.06,-8.93c-3.93,0 -7,3.07 -7,7c0,4.6 3.52,7 7,7c0.87,0 1.61,-0.09 2.26,-0.28a0.75,0.75 0 0 0 -0.42,-1.44c-0.51,0.15 -1.11,0.22 -1.84,0.22c-2.65,0 -5.5,-1.72 -5.5,-5.5c0,-3.08 2.42,-5.5 5.5,-5.5c3.24,0 5.5,1.95 5.5,4.75c0,2.05 -1.04,3 -1.75,3c-0.01,0 -0.75,-0.11 -0.75,-0.75l0,-4a0.75,0.75 0 1 0 -1.5,0l0,0.19c-0.35,-0.59 -1.02,-0.95 -1.79,-0.95c-1.61,0 -2.71,1.3 -2.71,3.2c0,1.98 1.1,3.31 2.75,3.31c0.87,0 1.51,-0.39 1.87,-1.08c0.33,1.02 1.37,1.58 2.13,1.58c1.6,0 3.25,-1.68 3.25,-4.5c0,-3.62 -2.94,-6.25 -7,-6.25" fill="#dcdfe4" fill-rule="evenodd" id="svg_5"/>
 </g>
</svg>