<svg width="200" height="144" fill="none" xmlns="http://www.w3.org/2000/svg"><g clip-path="url(#a)"><rect width="200" height="144" rx="4" fill="#F7F8F9"/><g filter="url(#b)"><rect x="24" y="24" width="152" height="125" rx="3" fill="#fff"/><rect x="32" y="32" width="26" height="4" rx="2" fill="#B3B9C4"/><rect x="32" y="44" width="16" height="16" rx="2" fill="#F1F2F4"/><rect x="56" y="46" width="88" height="4" rx="2" fill="#F1F2F4"/><rect x="56" y="54" width="32" height="4" rx="2" fill="#F1F2F4"/><rect x="32" y="68" width="16" height="16" rx="2" fill="#F1F2F4"/><rect x="56" y="70" width="80" height="4" rx="2" fill="#F1F2F4"/><rect x="56" y="78" width="32" height="4" rx="2" fill="#F1F2F4"/><rect x="32" y="92" width="16" height="16" rx="2" fill="#F1F2F4"/><rect x="56" y="94" width="64" height="4" rx="2" fill="#F1F2F4"/><rect x="56" y="102" width="32" height="4" rx="2" fill="#F1F2F4"/><path fill="#F1F2F4" d="M24 116h152v1H24z"/><rect x="32" y="125" width="48" height="4" rx="2" fill="#F1F2F4"/><rect x="32" y="137" width="48" height="4" rx="2" fill="#F1F2F4"/></g></g><defs><clipPath id="a"><path fill="#fff" d="M0 0h200v144H0z"/></clipPath><filter id="b" x="12" y="20" width="176" height="149" filterUnits="userSpaceOnUse" color-interpolation-filters="sRGB"><feFlood flood-opacity="0" result="BackgroundImageFix"/><feColorMatrix in="SourceAlpha" values="0 0 0 0 0 0 0 0 0 0 0 0 0 0 0 0 0 0 127 0" result="hardAlpha"/><feOffset dy="8"/><feGaussianBlur stdDeviation="6"/><feColorMatrix values="0 0 0 0 0.0352941 0 0 0 0 0.117647 0 0 0 0 0.258824 0 0 0 0.15 0"/><feBlend in2="BackgroundImageFix" result="effect1_dropShadow_2103_3782"/><feColorMatrix in="SourceAlpha" values="0 0 0 0 0 0 0 0 0 0 0 0 0 0 0 0 0 0 127 0" result="hardAlpha"/><feOffset/><feGaussianBlur stdDeviation=".5"/><feColorMatrix values="0 0 0 0 0.0352941 0 0 0 0 0.117647 0 0 0 0 0.258824 0 0 0 0.31 0"/><feBlend in2="effect1_dropShadow_2103_3782" result="effect2_dropShadow_2103_3782"/><feBlend in="SourceGraphic" in2="effect2_dropShadow_2103_3782" result="shape"/></filter></defs></svg>