<svg width="200" height="144" fill="none" xmlns="http://www.w3.org/2000/svg"><rect width="200" height="144" rx="4" fill="#F7F8F9"/><circle cx="131" cy="72" r="20" fill="#8993A5"/><path d="M127.052 77v-8.757h3.178v-1.107h-7.587v1.107h3.178V77h1.231ZM131.575 74.423c.13 1.702 1.572 2.81 3.664 2.81 2.256 0 3.685-1.156 3.685-2.967 0-1.45-.82-2.243-2.864-2.755l-1.033-.274c-1.36-.348-1.9-.793-1.9-1.565 0-.998.868-1.654 2.181-1.654 1.23 0 2.064.601 2.235 1.613h1.237c-.102-1.593-1.524-2.728-3.431-2.728-2.085 0-3.487 1.135-3.487 2.81 0 1.401.773 2.208 2.557 2.66l1.265.327c1.36.342 1.975.875 1.975 1.716 0 .978-.977 1.695-2.304 1.695-1.401 0-2.385-.656-2.536-1.688h-1.244Z" fill="#172B4D"/><circle cx="101" cy="72" r="20" fill="#B3B9C4"/><path d="M94.052 77v-8.757h3.178v-1.107h-7.587v1.107h3.178V77h1.23ZM104.522 69.214h.082l2.27 7.786h1.162l2.687-9.864h-1.286l-1.961 8.018h-.082l-2.208-8.018h-1.245l-2.208 8.018h-.082l-1.962-8.018h-1.285L101.091 77h1.162l2.269-7.786Z" fill="#172B4D"/><circle cx="71" cy="72" r="20" fill="#DCDFE4"/><path d="M62.588 74.696c0 1.511 1.162 2.536 2.816 2.536 1.785 0 2.871-1.1 2.871-2.98v-7.116h-1.23v7.11c0 1.21-.595 1.852-1.648 1.852-.93 0-1.558-.575-1.586-1.402h-1.223ZM74.658 77v-4.245l3.5-5.62h-1.401l-2.66 4.383h-.109l-2.659-4.382h-1.401l3.5 5.619V77h1.23Z" fill="#172B4D"/></svg>