<svg width="200" height="144" xmlns="http://www.w3.org/2000/svg">
 <g>
  <path d="m24,43l176,0l0,96a4,4 0 0 1 -4,4l-172,0l0,-100z" fill="#F7F8F9"/>
  <path d="m23.75,26.83a4,4 0 0 1 4,-4l172,0l0,20.34l-176,0l0,-16.34z" fill="#F1F2F4"/>
  <ellipse cx="33.38" cy="33" fill="#B3B9C4" rx="4" ry="4.07"/>
  <ellipse cx="45.13" cy="33" fill="#B3B9C4" rx="4" ry="4.07"/>
  <ellipse cx="57.88" cy="33" fill="#B3B9C4" rx="4" ry="4.07"/>
  <rect fill="#ffffff" height="32" width="175.75" x="24.25" y="44"/>
  <rect fill="#dcdfe4" height="8" rx="4" ry="4" width="36" x="121" y="57"/>
  <rect fill="#dcdfe4" height="8" rx="4" ry="4" width="36" x="165.38" y="57"/>
  <rect fill="#dcdfe4" height="8" rx="4" ry="4" width="40" x="26.13" y="57"/>
  <rect fill="#dcdfe4" height="8" irx="4" ry="4" width="36" x="76" y="57"/>
 </g>
</svg>