<?xml version="1.0"?>
<svg width="200" height="144" xmlns="http://www.w3.org/2000/svg" xmlns:svg="http://www.w3.org/2000/svg">
 <g class="layer">
  <title>Layer 1</title>
  <rect fill="#F7F8F9" height="144" id="svg_1" rx="4" width="200"/>
  <rect fill="#fff" height="113" id="svg_3" rx="5" transform="matrix(1 0 0 1 0 0)" width="152" x="25" y="15"/>
  <rect fill="#f1f2f4" height="8" id="svg_4" rx="4" width="130" x="31.75" y="50.75"/>
  <path d="m25.13,67.88l152,0l0,1l-152,0l0,-1z" fill="#F1F2F4" id="svg_7"/>
  <rect fill="#B3B9C4" height="8" id="svg_8" rx="4" ry="4" transform="matrix(1 0 0 1 0 0)" width="100" x="31.75" y="23.63"/>
  <path d="m25.13,40.13l152,0l0,1l-152,0l0,-1z" fill="#F1F2F4" id="svg_9"/>
  <rect fill="#f1f2f4" height="8" id="svg_10" rx="4" width="100" x="31.75" y="80.13"/>
  <rect fill="#f1f2f4" height="8" id="svg_11" rx="4" width="90" x="31.75" y="108.88"/>
  <path d="m25.13,96.63l152,0l0,1l-152,0l0,-1z" fill="#F1F2F4" id="svg_12"/>
 </g>
</svg>