<?xml version="1.0"?>
<svg width="200" height="144" xmlns="http://www.w3.org/2000/svg" xmlns:svg="http://www.w3.org/2000/svg">
 <defs>
  <clipPath id="a">
   <path d="m0,4a4,4 0 0 1 4,-4l192,0a4,4 0 0 1 4,4l0,136a4,4 0 0 1 -4,4l-192,0a4,4 0 0 1 -4,-4l0,-136z" fill="#fff" id="svg_1"/>
  </clipPath>
  <filter color-interpolation-filters="sRGB" filterUnits="userSpaceOnUse" height="175" id="b" width="184" x="-12" y="-4">
   <feFlood flood-opacity="0" result="BackgroundImageFix"/>
   <feColorMatrix in="SourceAlpha" result="hardAlpha" values="0 0 0 0 0 0 0 0 0 0 0 0 0 0 0 0 0 0 127 0"/>
   <feOffset dy="8"/>
   <feGaussianBlur stdDeviation="6"/>
   <feColorMatrix values="0 0 0 0 0.0352941 0 0 0 0 0.117647 0 0 0 0 0.258824 0 0 0 0.15 0"/>
   <feBlend in2="BackgroundImageFix"/>
   <feColorMatrix in="SourceAlpha" result="hardAlpha" values="0 0 0 0 0 0 0 0 0 0 0 0 0 0 0 0 0 0 127 0"/>
   <feOffset/>
   <feGaussianBlur stdDeviation="0.5"/>
   <feColorMatrix values="0 0 0 0 0.0352941 0 0 0 0 0.117647 0 0 0 0 0.258824 0 0 0 0.31 0"/>
   <feBlend in2="effect1_dropShadow_2069_3276"/>
   <feBlend in="SourceGraphic" in2="effect2_dropShadow_2069_3276"/>
  </filter>
 </defs>
 <g class="layer">
  <title>Layer 1</title>
  <g clip-path="url(#a)" id="svg_2">
   <rect fill="#DCDFE4" height="144" id="svg_3" rx="4" width="200"/>
   <g filter="url(#b)" id="svg_4">
    <path d="m0,0l160,0l0,151l-160,0l0,-151z" fill="#fff" id="svg_5"/>
    <rect fill="#B3B9C4" height="8" id="svg_7" rx="4" width="97" x="16" y="15"/>
    <rect fill="#DCDFE4" height="8" id="svg_8" rx="4" width="128" x="16" y="46"/>
    <rect fill="#DCDFE4" height="8" id="svg_9" rx="4" width="128" x="16" y="70"/>
    <rect fill="#DCDFE4" height="8" id="svg_10" rx="4" width="128" x="16" y="94"/>
   </g>
  </g>
  <path d="m148.19,13.4l-3.19,3.19l-3.18,-3.19a0.51,0.51 0 0 0 -0.72,0l-0.7,0.7a0.5,0.5 0 0 0 0,0.72l3.18,3.18l-3.18,3.19a0.51,0.51 0 0 0 0,0.71l0.7,0.7c0.21,0.2 0.52,0.2 0.72,0l3.18,-3.18l3.19,3.18a0.51,0.51 0 0 0 0.71,0l0.7,-0.7a0.5,0.5 0 0 0 0,-0.71l-3.18,-3.19l3.18,-3.18a0.51,0.51 0 0 0 0,-0.72l-0.7,-0.7a0.51,0.51 0 0 0 -0.36,-0.15a0.5,0.5 0 0 0 -0.35,0.15z" fill-rule="evenodd" id="svg_6"/>
 </g>
</svg>