<svg width="200" height="144" xmlns="http://www.w3.org/2000/svg">
 <g>
  <rect fill="#f7f8f9" height="144" rx="4" width="200"/>
  <rect fill="#ffffff" height="100" rx="4" ry="4" width="140" x="31" y="26"/>
  <path d="m40.37,39.25l104.51,0a2,2 0 0 1 0,4l-104.51,0a2,2 0 0 1 0,-4z" fill="#b3b9c4"/>
  <rect fill="#f1f2f4" height="4" rx="2" ry="2" width="130" x="38.38" y="49.62"/>
  <rect fill="#f1f2f4" height="4" rx="2" ry="2" width="99.47" x="38.38" y="60.37"/>
  <path d="m30.87,72.63l0,-1l140,0l0,1l-140,0z" fill="#f1f2f4" />
  <path d="m158.1,39.07l-2.93,2.96a1.01,1.01 0 0 0 0,1.42a0.99,0.99 0 0 0 1.41,0l2.29,-2.32l2.31,2.33a0.99,0.99 0 0 0 1.41,0a1.01,1.01 0 0 0 0,-1.42l-2.94,-2.97a1.11,1.11 0 0 0 -0.78,-0.32c-0.28,0 -0.56,0.11 -0.77,0.32z" fill="#b3b9c4" fill-rule="evenodd"/>
  <path d="m40.37,83.25l104.51,0a2,2 0 0 1 0,4l-104.51,0a2,2 0 0 1 0,-4z" fill="#b3b9c4" />
  <path clip-rule="evenodd" d="m155.17,83.04a1.01,1.01 0 0 0 0,1.42l2.94,2.97c0.22,0.21 0.5,0.32 0.78,0.32s0.56,-0.11 0.77,-0.32l2.93,-2.96a1.01,1.01 0 0 0 0,-1.42a0.99,0.99 0 0 0 -1.41,0l-2.3,2.32l-2.3,-2.33a0.99,0.99 0 0 0 -1.41,0z" fill="#B3B9C4" fill-rule="evenodd"/>
  <path d="m30.87,98.88l0,-1l140,0l0,1l-140,0z" fill="#f1f2f4" />
  <path d="m40.37,110.87l104.51,0a2,2 0 0 1 0,4l-104.51,0a2,2 0 0 1 0,-4z" fill="#b3b9c4"/>
  <path clip-rule="evenodd" d="m155.17,110.67a1.01,1.01 0 0 0 0,1.42l2.94,2.97c0.22,0.21 0.5,0.32 0.78,0.32s0.56,-0.11 0.77,-0.32l2.93,-2.96a1.01,1.01 0 0 0 0,-1.42a0.99,0.99 0 0 0 -1.41,0l-2.3,2.32l-2.3,-2.33a0.99,0.99 0 0 0 -1.41,0z" fill="#B3B9C4" fill-rule="evenodd"/>
 </g>
</svg>