<svg width="200" height="144" fill="none" xmlns="http://www.w3.org/2000/svg"><rect width="200" height="144" rx="4" fill="#F7F8F9"/><path fill-rule="evenodd" clip-rule="evenodd" d="M46 54a6 6 0 1 0 0-12 6 6 0 0 0 0 12Z" fill="#44546F"/><circle cx="46" cy="48" r="3" fill="#fff"/><rect x="62" y="44" width="103" height="8" rx="4" fill="#DCDFE4"/><path fill-rule="evenodd" clip-rule="evenodd" d="M46 78a6 6 0 1 0 0-12 6 6 0 0 0 0 12Z" fill="#44546F"/><rect x="62" y="68" width="103" height="8" rx="4" fill="#DCDFE4"/><path fill-rule="evenodd" clip-rule="evenodd" d="M46 102a6 6 0 1 0 0-12 6 6 0 0 0 0 12Z" fill="#44546F"/><rect x="62" y="92" width="103" height="8" rx="4" fill="#DCDFE4"/></svg>