<svg width="200" height="144" fill="none" xmlns="http://www.w3.org/2000/svg"><g clip-path="url(#a)"><rect width="200" height="144" rx="4" fill="#F7F8F9"/><g filter="url(#b)"><g clip-path="url(#c)"><rect x="16" y="16" width="168" height="112" rx="2" fill="#fff"/><path fill="#F1F2F4" d="M16 16h168v12H16z"/><circle cx="22" cy="22" r="2" fill="#B3B9C4"/><circle cx="28" cy="22" r="2" fill="#B3B9C4"/><circle cx="34" cy="22" r="2" fill="#B3B9C4"/><g clip-path="url(#d)" fill="#F1F2F4"><rect x="24" y="36" width="116" height="8" rx="2"/><rect x="24" y="48" width="116" height="8" rx="2"/><rect x="24" y="60" width="32" height="107" rx="2"/><rect x="60" y="60" width="80" height="107" rx="2"/><rect x="144" y="36" width="32" height="107" rx="2"/></g></g></g></g><defs><clipPath id="a"><path fill="#fff" d="M0 0h200v144H0z"/></clipPath><clipPath id="c"><rect x="16" y="16" width="168" height="112" rx="2" fill="#fff"/></clipPath><clipPath id="d"><path fill="#fff" transform="translate(16 28)" d="M0 0h168v144H0z"/></clipPath><filter id="b" x="4" y="12" width="192" height="136" filterUnits="userSpaceOnUse" color-interpolation-filters="sRGB"><feFlood flood-opacity="0" result="BackgroundImageFix"/><feColorMatrix in="SourceAlpha" values="0 0 0 0 0 0 0 0 0 0 0 0 0 0 0 0 0 0 127 0" result="hardAlpha"/><feOffset dy="8"/><feGaussianBlur stdDeviation="6"/><feColorMatrix values="0 0 0 0 0.0352941 0 0 0 0 0.117647 0 0 0 0 0.258824 0 0 0 0.15 0"/><feBlend in2="BackgroundImageFix" result="effect1_dropShadow_2117_3750"/><feColorMatrix in="SourceAlpha" values="0 0 0 0 0 0 0 0 0 0 0 0 0 0 0 0 0 0 127 0" result="hardAlpha"/><feOffset/><feGaussianBlur stdDeviation=".5"/><feColorMatrix values="0 0 0 0 0.0352941 0 0 0 0 0.117647 0 0 0 0 0.258824 0 0 0 0.31 0"/><feBlend in2="effect1_dropShadow_2117_3750" result="effect2_dropShadow_2117_3750"/><feBlend in="SourceGraphic" in2="effect2_dropShadow_2117_3750" result="shape"/></filter></defs></svg>