<svg width="200" height="144" fill="none" xmlns="http://www.w3.org/2000/svg"><rect width="200" height="144" rx="4" fill="#F7F8F9"/><path fill-rule="evenodd" clip-rule="evenodd" d="M42 42h8a2 2 0 0 1 2 2v8a2 2 0 0 1-2 2h-8a2 2 0 0 1-2-2v-8a2 2 0 0 1 2-2Zm1.382 5.069a1 1 0 0 1 .325.224L45 48.586l3.293-3.293a1 1 0 1 1 1.414 1.414l-4 4a1 1 0 0 1-1.414 0l-2-2a1 1 0 0 1 1.09-1.638Z" fill="#44546F"/><rect x="62" y="44" width="103" height="8" rx="4" fill="#DCDFE4"/><path fill-rule="evenodd" clip-rule="evenodd" d="M42 66h8a2 2 0 0 1 2 2v8a2 2 0 0 1-2 2h-8a2 2 0 0 1-2-2v-8a2 2 0 0 1 2-2Zm1.382 5.069a1 1 0 0 1 .325.224L45 72.586l3.293-3.293a1 1 0 1 1 1.414 1.414l-4 4a1 1 0 0 1-1.414 0l-2-2a1 1 0 0 1 1.09-1.638Z" fill="#44546F"/><rect x="40" y="66" width="12" height="12" rx="2" fill="#44546F"/><rect x="62" y="68" width="103" height="8" rx="4" fill="#DCDFE4"/><path fill-rule="evenodd" clip-rule="evenodd" d="M42 90h8a2 2 0 0 1 2 2v8a2 2 0 0 1-2 2h-8a2 2 0 0 1-2-2v-8a2 2 0 0 1 2-2Zm1.382 5.069a1 1 0 0 1 .325.224L45 96.586l3.293-3.293a1 1 0 1 1 1.414 1.414l-4 4a1 1 0 0 1-1.414 0l-2-2a1 1 0 0 1 1.09-1.638Z" fill="#44546F"/><rect x="62" y="92" width="103" height="8" rx="4" fill="#DCDFE4"/></svg>