<svg width="200" height="144" fill="none" xmlns="http://www.w3.org/2000/svg"><g clip-path="url(#a)"><rect width="200" height="144" rx="4" fill="#F7F8F9"/><rect x="24" y="24" width="32" height="32" rx="3" fill="#DCDFE4"/><path d="M33 42a2 2 0 1 0 0-4 2 2 0 0 0 0 4ZM40 42a2 2 0 1 0 0-4 2 2 0 0 0 0 4ZM47 42a2 2 0 1 0 0-4 2 2 0 0 0 0 4Z" fill="#44546F"/><g filter="url(#b)"><path d="M24 66a4 4 0 0 1 4-4h144a4 4 0 0 1 4 4v80H24V66Z" fill="#fff"/></g><rect x="40" y="85" width="120" height="8" rx="4" fill="#DCDFE4"/><rect x="40" y="105" width="120" height="8" rx="4" fill="#DCDFE4"/><rect x="40" y="125" width="120" height="8" rx="4" fill="#DCDFE4"/></g><defs><clipPath id="a"><path fill="#fff" d="M0 0h200v144H0z"/></clipPath><filter id="b" x="12" y="58" width="176" height="108" filterUnits="userSpaceOnUse" color-interpolation-filters="sRGB"><feFlood flood-opacity="0" result="BackgroundImageFix"/><feColorMatrix in="SourceAlpha" values="0 0 0 0 0 0 0 0 0 0 0 0 0 0 0 0 0 0 127 0" result="hardAlpha"/><feOffset dy="8"/><feGaussianBlur stdDeviation="6"/><feColorMatrix values="0 0 0 0 0.0352941 0 0 0 0 0.117647 0 0 0 0 0.258824 0 0 0 0.15 0"/><feBlend in2="BackgroundImageFix" result="effect1_dropShadow_391_207"/><feColorMatrix in="SourceAlpha" values="0 0 0 0 0 0 0 0 0 0 0 0 0 0 0 0 0 0 127 0" result="hardAlpha"/><feOffset/><feGaussianBlur stdDeviation=".5"/><feColorMatrix values="0 0 0 0 0.0352941 0 0 0 0 0.117647 0 0 0 0 0.258824 0 0 0 0.31 0"/><feBlend in2="effect1_dropShadow_391_207" result="effect2_dropShadow_391_207"/><feBlend in="SourceGraphic" in2="effect2_dropShadow_391_207" result="shape"/></filter></defs></svg>